<?xml version="1.0" standalone="no"?><!DOCTYPE svg PUBLIC "-//W3C//DTD SVG 1.1//EN" "http://www.w3.org/Graphics/SVG/1.1/DTD/svg11.dtd"><svg t="1611803521502" class="icon" viewBox="0 0 1024 1024" version="1.1" xmlns="http://www.w3.org/2000/svg" p-id="2664" xmlns:xlink="http://www.w3.org/1999/xlink" width="200" height="200"><defs><style type="text/css">@font-face { font-weight: 400; font-style: normal; font-family: Circular-Loom; src: url("https://cdn.loom.com/assets/fonts/circular/CircularXXWeb-Book-cd7d2bcec649b1243839a15d5eb8f0a3.woff2") format("woff2"); }
@font-face { font-weight: 500; font-style: normal; font-family: Circular-Loom; src: url("https://cdn.loom.com/assets/fonts/circular/CircularXXWeb-Medium-d74eac43c78bd5852478998ce63dceb3.woff2") format("woff2"); }
@font-face { font-weight: 700; font-style: normal; font-family: Circular-Loom; src: url("https://cdn.loom.com/assets/fonts/circular/CircularXXWeb-Bold-83b8ceaf77f49c7cffa44107561909e4.woff2") format("woff2"); }
@font-face { font-weight: 900; font-style: normal; font-family: Circular-Loom; src: url("https://cdn.loom.com/assets/fonts/circular/CircularXXWeb-Black-bf067ecb8aa777ceb6df7d72226febca.woff2") format("woff2"); }
</style></defs><path d="M600.576 192c-137.344 0-252.16 100.16-283.264 235.712-2.752 0-5.44 0-8.576-0.448C208.896 427.264 128 513.024 128 618.88c0 50.752 18.944 99.648 52.864 135.04 33.92 35.968 80 56.128 127.872 56.128s93.952-20.16 127.808-56.576c28.48-30.144 44.288-70.4 48.832-114.944L419.84 633.28c-14.912-1.92-19.456-13.888-10.368-26.368l110.72-145.152c8.96-12.48 21.12-11.008 27.072 3.328l62.72 162.944c5.952 14.848-1.28 24.96-16.192 23.04l-48.832-4.864a254.656 254.656 0 0 1-60.544 139.456 277.696 277.696 0 0 0 116.16 25.408c161.28 0 291.84-138.496 291.84-309.568 0-171.008-130.56-309.504-291.84-309.504z" fill="#888888" p-id="2665"></path></svg>