<svg t="1597069211492" class="icon" viewBox="0 0 1024 1024" version="1.1" xmlns="http://www.w3.org/2000/svg" p-id="8976" width="200" height="200"><path d="M221.8 227.7V848c0 30.9 25.1 56 56 56h532c30.9 0 56-25.1 56-56V227.7h-644z" fill="#FEF8E6" p-id="8977"></path><path d="M809.9 120h-532c-30.9 0-56 25.1-56 56v84h644v-84c0-30.9-25.1-56-56-56z" fill="#F77490" p-id="8978"></path><path d="M242.1 794.2c15.5 0 28-12.5 28-28s-12.5-28-28-28h-56c-15.5 0-28 12.5-28 28s12.5 28 28 28h56zM242.1 374.2c15.5 0 28-12.5 28-28s-12.5-28-28-28h-56c-15.5 0-28 12.5-28 28s12.5 28 28 28h56zM242.1 654.2c15.5 0 28-12.5 28-28s-12.5-28-28-28h-56c-15.5 0-28 12.5-28 28s12.5 28 28 28h56zM242.1 514.2c15.5 0 28-12.5 28-28s-12.5-28-28-28h-56c-15.5 0-28 12.5-28 28s12.5 28 28 28h56z" fill="#8ADCFF" p-id="8979"></path><path d="M697.9 695.4h-308c-6.2 0-11.3-5.1-11.3-11.3V344.3c0-6.2 5.1-11.3 11.3-11.3h308c6.2 0 11.3 5.1 11.3 11.3v339.8c0 6.2-5.1 11.3-11.3 11.3z" fill="#BD9EE2" p-id="8980"></path><path d="M865.8 227.7V848c0 30.9-25.1 56-56 56h-60c30.9 0 56-25.1 56-56V227.7h60z" fill="#FCEFAD" p-id="8981"></path><path d="M865.8 176v84h-60v-84c0-30.9-25.1-56-56-56h60c31 0 56 25.1 56 56z" fill="#F65D73" p-id="8982"></path><path d="M270.2 766.2c0 15.5-12.5 28-28 28h-40c15.5 0 28-12.5 28-28s-12.5-28-28-28h40c15.4 0 28 12.5 28 28zM270.2 346.2c0 15.5-12.5 28-28 28h-40c15.5 0 28-12.5 28-28s-12.5-28-28-28h40c15.4 0 28 12.5 28 28zM270.2 626.2c0 15.5-12.5 28-28 28h-40c15.5 0 28-12.5 28-28s-12.5-28-28-28h40c15.4 0 28 12.5 28 28zM270.2 486.2c0 15.5-12.5 28-28 28h-40c15.5 0 28-12.5 28-28s-12.5-28-28-28h40c15.4 0 28 12.5 28 28z" fill="#46CDFB" p-id="8983"></path><path d="M709.2 344.2V684c0 6.2-5.1 11.3-11.3 11.3h-60c6.2 0 11.3-5.1 11.3-11.3V344.2c0-6.2-5.1-11.3-11.3-11.3h60c6.2 0 11.3 5.1 11.3 11.3z" fill="#978CDB" p-id="8984"></path><path d="M875.9 176c0-36.4-29.6-66-66-66h-532c-36.4 0-66 29.6-66 66v50.4c-0.1 0.4-0.1 0.9-0.1 1.3v80.5h-25.7c-21 0-38 17-38 38s17 38 38 38h25.7v64h-25.7c-21 0-38 17-38 38s17 38 38 38h25.7v64h-25.7c-21 0-38 17-38 38s17 38 38 38h25.7v64h-25.7c-21 0-38 17-38 38s17 38 38 38h25.7V848c0 36.4 29.6 66 66 66h532c36.4 0 66-29.6 66-66V261.3c0.1-0.4 0.1-0.9 0.1-1.3v-84z m-644 0c0-25.4 20.6-46 46-46h532c25.4 0 46 20.6 46 46v74h-624v-74z m-63.8 170.2c0-9.9 8.1-18 18-18h56c9.9 0 18 8.1 18 18s-8.1 18-18 18h-56c-9.9 0-18-8.1-18-18z m0 140c0-9.9 8.1-18 18-18h56c9.9 0 18 8.1 18 18s-8.1 18-18 18h-56c-9.9 0-18-8.1-18-18z m0 140c0-9.9 8.1-18 18-18h56c9.9 0 18 8.1 18 18s-8.1 18-18 18h-56c-9.9 0-18-8.1-18-18z m0 140c0-9.9 8.1-18 18-18h56c9.9 0 18 8.1 18 18s-8.1 18-18 18h-56c-9.9 0-18-8.1-18-18zM809.8 894h-532c-25.4 0-46-20.6-46-46v-43.8h10.3c21 0 38-17 38-38s-17-38-38-38h-10.3v-64h10.3c21 0 38-17 38-38s-17-38-38-38h-10.3v-64h10.3c21 0 38-17 38-38s-17-38-38-38h-10.3v-64h10.3c21 0 38-17 38-38s-17-38-38-38h-10.3V270h624v578c0 25.4-20.6 46-46 46z" fill="#00435B" p-id="8985"></path><path d="M697.9 323h-308c-11.7 0-21.3 9.6-21.3 21.3v339.8c0 11.7 9.6 21.3 21.3 21.3h308c11.7 0 21.3-9.6 21.3-21.3V344.3c0-11.7-9.6-21.3-21.3-21.3z m1.3 361.1c0 0.7-0.6 1.3-1.3 1.3h-308c-0.7 0-1.3-0.6-1.3-1.3V344.3c0-0.7 0.6-1.3 1.3-1.3h308c0.7 0 1.3 0.6 1.3 1.3v339.8z" fill="#00435B" p-id="8986"></path></svg>
