<svg t="1597069228648" class="icon" viewBox="0 0 1024 1024" version="1.1" xmlns="http://www.w3.org/2000/svg" p-id="9130" width="200" height="200"><path d="M619.9 196.4C614.4 137.9 565 92 505 92c-61.1 0-111.3 47.8-115.1 108-0.2 2.5-0.2 4.9-0.2 7.4v113.5c0 63.6 51.8 115.4 115.4 115.4s115.4-51.8 115.4-115.4V207.4c0-3.7-0.2-7.4-0.6-11z m-36.5 124.5c0 43.2-35.1 78.3-78.3 78.3s-78.3-35.1-78.3-78.3V207.4c0-5.1 0.5-10.1 1.4-14.9 7-36.1 38.8-63.5 76.9-63.5 37.7 0 69.3 26.8 76.7 62.4 1.1 5.2 1.6 10.5 1.6 15.9v113.6z" fill="#889CA9" p-id="9131"></path><path d="M288.1 854.3h-54.5c-33.8 0-61.4-27.6-61.4-61.4v-193c0-33.8 27.6-61.4 61.4-61.4h54.5c33.8 0 61.4 27.6 61.4 61.4v193c0 33.7-27.6 61.4-61.4 61.4z" fill="#BD9EE2" p-id="9132"></path><path d="M790.4 854.3h-54.5c-33.8 0-61.4-27.6-61.4-61.4v-193c0-33.8 27.6-61.4 61.4-61.4h54.5c33.8 0 61.4 27.6 61.4 61.4v193c0 33.7-27.6 61.4-61.4 61.4z" fill="#978CDB" p-id="9133"></path><path d="M799.8 419.2v411.9c0 7.8-0.9 15.4-2.6 22.8-10.4 44.6-50.6 78.1-98.3 78.1H325.1c-47.7 0-87.9-33.5-98.3-78.1-1.7-7.3-2.6-14.9-2.6-22.8V419.2c0-65.1 27.7-124.1 71.8-165.8 21.5-20.3 46.9-36.4 74.9-47.2 6.2-2.4 12.5-4.5 18.9-6.3 12.3-3.5 25.1-6.1 38.2-7.4 7.9-0.8 16-1.3 24.1-1.3h119.6c3.3 0 6.6 0.1 9.9 0.2 13 0.6 25.8 2.2 38.2 4.9 11.4 2.5 22.4 5.8 33.1 9.9 28 10.8 53.4 26.9 74.9 47.2 44.3 41.8 72 100.7 72 165.8z" fill="#FDF17F" p-id="9134"></path><path d="M426.7 320.9V207.4c0-5.1 0.5-10.1 1.4-14.9 6.3-32.9 33.4-58.5 66.9-62.8-3.3-0.4-6.6-0.6-10-0.6-38.1 0-70 27.3-76.9 63.5-0.9 4.8-1.4 9.8-1.4 14.9V321c0 43.2 35.1 78.3 78.3 78.3 3.4 0 6.7-0.2 10-0.6-38.5-5-68.3-38-68.3-77.8z m193.2-124.5C614.4 137.9 565 92 505 92c-3.4 0-6.7 0.2-10 0.4 55.3 4.8 99.6 48.7 104.9 104 0.4 3.6 0.5 7.3 0.5 11v113.5c0 60.3-46.4 109.9-105.4 115 3.3 0.3 6.6 0.4 10 0.4 63.6 0 115.4-51.8 115.4-115.4V207.4c0.1-3.7-0.1-7.4-0.5-11z" fill="#73859E" p-id="9135"></path><path d="M665.7 856.7H358.3c-41.1 0-74.6-33.6-74.6-74.6v-141c0-41.1 33.6-74.6 74.6-74.6h307.3c41.1 0 74.6 33.6 74.6 74.6V782c0.1 41.1-33.5 74.7-74.5 74.7z" fill="#8ADCFF" p-id="9136"></path><path d="M799.8 419.2v8c-21.9 14-45.9 26.4-71.8 36.9-23.6 9.6-48.6 17.7-74.9 24-44.1 10.6-91.5 16.4-141 16.4s-96.9-5.8-141-16.4c-26.3-6.3-51.4-14.4-74.9-24-25.9-10.5-50-22.9-71.8-36.9v-8c0-65.1 27.7-124.1 71.8-165.8 21.5-20.3 46.9-36.4 74.9-47.2 6.2-2.4 12.5-4.5 18.9-6.3 12.3-3.5 25.1-6.1 38.2-7.4 7.9-0.8 16-1.3 24.1-1.3h119.6c3.3 0 6.6 0.1 9.9 0.2 13 0.6 25.8 2.2 38.2 4.9 11.4 2.5 22.4 5.8 33.1 9.9 28 10.8 53.4 26.9 74.9 47.2 44.1 41.8 71.8 100.7 71.8 165.8z" fill="#BD9EE2" p-id="9137"></path><path d="M799.8 419.2v411.9c0 7.8-0.9 15.4-2.6 22.8-10.4 44.6-50.6 78.1-98.3 78.1h-60c47.7 0 87.9-33.5 98.3-78.1 1.7-7.3 2.6-14.9 2.6-22.8V419.2c0-65.1-27.7-124.1-71.8-165.8-21.5-20.3-46.9-36.4-74.9-47.2-10.7-4.1-21.7-7.4-33.1-9.9-12.4-2.7-25.1-4.4-38.2-4.9-3.3-0.1-6.6-0.2-9.9-0.2h60c3.3 0 6.6 0.1 9.9 0.2 13 0.6 25.8 2.2 38.2 4.9 11.4 2.5 22.4 5.8 33.1 9.9 28 10.8 53.4 26.9 74.9 47.2 44.1 41.8 71.8 100.7 71.8 165.8z" fill="#FAD672" p-id="9138"></path><path d="M799.8 419.2v8c-21.9 14-45.9 26.4-71.8 36.9-23.6 9.6-48.6 17.7-74.9 24-44.1 10.6-91.5 16.4-141 16.4-10.1 0-20.1-0.2-30-0.7 38.7-1.8 75.9-7.2 111-15.7 26.3-6.3 51.4-14.4 74.9-24 25.9-10.5 50-22.9 71.8-36.9v-8c0-65.1-27.7-124.1-71.8-165.8-21.5-20.3-46.9-36.4-74.9-47.2-10.7-4.1-21.7-7.4-33.1-9.9-12.4-2.7-25.1-4.4-38.2-4.9-3.3-0.1-6.6-0.2-9.9-0.2h60c3.3 0 6.6 0.1 9.9 0.2 13 0.6 25.8 2.2 38.2 4.9 11.4 2.5 22.4 5.8 33.1 9.9 28 10.8 53.4 26.9 74.9 47.2 44.1 41.8 71.8 100.7 71.8 165.8z" fill="#978CDB" p-id="9139"></path><path d="M740.3 641.1V782c0 41-33.6 74.6-74.6 74.6h-50c41 0 74.6-33.6 74.6-74.6V641.1c0-41-33.6-74.6-74.6-74.6h50c41 0 74.6 33.6 74.6 74.6z" fill="#46CDFB" p-id="9140"></path><path d="M371 206.3v320.9c0 6.2-5.1 11.3-11.3 11.3h-52.2c-6.2 0-11.3-5.1-11.3-11.3V253.5c21.4-20.3 46.8-36.4 74.8-47.2zM727.9 253.5v273.7c0 6.2-5.1 11.3-11.3 11.3h-52.2c-6.2 0-11.3-5.1-11.3-11.3V206.3c27.9 10.8 53.3 26.9 74.8 47.2z" fill="#F77490" p-id="9141"></path><path d="M371 206.3v320.9c0 6.2-5.1 11.3-11.3 11.3h-6.5c4.9-1.9 8.4-6.7 8.4-12.3v-316c3.1-1.4 6.2-2.7 9.4-3.9zM727.9 253.5v273.7c0 6.2-5.1 11.3-11.3 11.3h-7c4.9-1.9 8.4-6.7 8.4-12.3V244.7c3.4 2.8 6.7 5.8 9.9 8.8z" fill="#F65D73" p-id="9142"></path><path d="M844.4 553.2c-9.2-10.6-21.3-18.3-34.6-22v-112c0-2.5 0-5.1-0.1-7.6-0.2-6.9-0.7-13.8-1.5-20.6-0.3-2.2-0.5-4.2-0.8-6.1-0.7-4.9-1.6-9.7-2.6-14.5-0.9-4.2-1.9-8.4-3-12.5v-0.1c-0.4-1.6-0.9-3.3-1.4-4.9-0.2-0.7-0.4-1.3-0.6-2l-1.2-3.9c-0.1-0.4-0.2-0.8-0.4-1.2-0.1-0.4-0.3-0.7-0.4-1.1-0.5-1.5-1-3.1-1.6-4.6-0.2-0.7-0.5-1.3-0.7-2-0.6-1.7-1.2-3.3-1.9-5l-0.9-2.1c-0.7-1.6-1.3-3.3-2-4.9-0.3-0.7-0.6-1.4-0.9-2.2-0.7-1.6-1.4-3.2-2.2-4.8-0.3-0.7-0.7-1.4-1-2.1-0.7-1.4-1.3-2.7-2-4.1-0.5-0.9-0.9-1.9-1.4-2.8l-1.8-3.3c-0.7-1.2-1.3-2.4-2-3.7l-1.5-2.7c-1.2-2.1-2.5-4.2-3.8-6.3-10.9-17.5-24-33.6-39.1-47.9-22.7-21.4-49-38-78.2-49.3-9-3.5-18.3-6.4-27.7-8.7-4.3-28.1-18.1-53.9-39.3-73.3C566.4 93.7 536.4 82 505 82c-63.6 0-116.9 47.9-124.4 110.2-4.5 1.4-8.9 3-13.3 4.6-29.2 11.2-55.5 27.8-78.2 49.3-23.4 22.1-41.8 48.1-54.7 77.3-13.4 30.3-20.2 62.5-20.2 95.7v112c-13.3 3.8-25.4 11.4-34.6 22-11.2 13-17.4 29.5-17.4 46.7v193c0 34.1 23.9 63 56.6 69.9 6.4 21.3 19.3 40.6 36.9 54.7 19.6 15.8 44.3 24.5 69.4 24.5h373.8c25.1 0 49.8-8.7 69.4-24.5 17.5-14.1 30.4-33.4 36.9-54.7 14.7-3.1 28-10.8 38.2-22.1 11.9-13.2 18.4-30.1 18.4-47.7v-193c0-17.1-6.2-33.7-17.4-46.7zM446 181.3c-0.1 0-0.1 0 0 0-0.8 0-1.6 0.1-2.4 0.1H442c10.4-25.2 35.1-42.4 63.2-42.4 27.9 0 52.7 17.1 63.1 42.2h-116c-2.1 0-4.3 0-6.3 0.1zM234.4 419.2c0-30.4 6.2-59.9 18.5-87.6 8.5-19.3 19.7-37.1 33.3-53.1V449c-18.3-8.1-35.7-17.3-51.8-27.3v-2.5z m71.8 44.9V257.9c4.1-3.7 8.3-7.3 12.6-10.7 2.2-1.7 4.4-3.3 6.6-5 1.1-0.8 2.2-1.6 3.4-2.4 10.2-7 20.9-13.2 32.2-18.4v305.8c0 0.7-0.6 1.3-1.3 1.3h-52.2c-0.7 0-1.3-0.6-1.3-1.3v-63.1zM381 213.2c3.8-1.3 7.7-2.6 11.6-3.7 0.1 0 0.2-0.1 0.3-0.1 12.3-3.5 24.5-5.8 36.3-7 5.2-0.5 10-0.9 14.6-1.1 0.9 0 1.8-0.1 2.7-0.1 1.9-0.1 3.8-0.1 5.8-0.1h119.6c1.5 0 3 0 4.5 0.1h0.2c1.5 0 3 0.1 4.5 0.1h0.2c12.6 0.6 24.8 2.2 36.3 4.7h0.1c8.6 1.9 17.1 4.3 25.4 7.2v266.9c-42.2 9.5-86.2 14.3-131 14.3S423.2 489.6 381 480V213.2z m282.1 8.2c9.9 4.6 19.3 9.9 28.4 15.9 0.2 0.1 0.4 0.3 0.6 0.4 0.9 0.6 1.8 1.2 2.8 1.9 0.3 0.2 0.7 0.5 1 0.7 0.9 0.6 1.7 1.2 2.5 1.8 0.4 0.3 0.8 0.6 1.2 0.8 1.3 0.9 2.5 1.9 3.8 2.8 0.6 0.5 1.3 1 1.9 1.5 0.5 0.4 1.1 0.9 1.6 1.3 0.7 0.5 1.4 1.1 2.1 1.7l1.5 1.2c0.7 0.6 1.5 1.2 2.2 1.8 0.4 0.4 0.9 0.8 1.3 1.1 0.8 0.7 1.6 1.4 2.5 2.2 0.4 0.3 0.8 0.7 1.2 1l0.3 0.3v269.3c0 0.7-0.6 1.3-1.3 1.3h-52.2c-0.7 0-1.3-0.6-1.3-1.3V221.4z m74.8 57.2c8.5 10 16.1 20.8 22.7 32.1 0.3 0.4 0.5 0.9 0.8 1.3 0.8 1.5 1.7 3 2.5 4.5 0.4 0.8 0.8 1.6 1.2 2.3 0.6 1.1 1.2 2.2 1.7 3.3 0.5 1 1 2.1 1.5 3.1 0.4 0.7 0.7 1.5 1.1 2.2 0.7 1.4 1.3 2.8 1.9 4.2 0.3 0.7 0.6 1.4 0.9 2.2 0.6 1.5 1.2 2.9 1.8 4.4 0.3 0.7 0.5 1.4 0.8 2.1 0.6 1.5 1.1 2.9 1.7 4.4 0.2 0.6 0.5 1.3 0.7 1.9l1.5 4.2c0.2 0.7 0.4 1.4 0.7 2 0.4 1.2 0.8 2.4 1.1 3.6 0.2 0.6 0.4 1.2 0.5 1.8 0.5 1.5 0.9 3.1 1.3 4.6 0.3 1.2 0.6 2.3 0.9 3.5 1.8 7 3.2 14.1 4.2 21.3 0.2 1.3 0.4 2.7 0.6 4.1 0.1 0.5 0.1 0.9 0.2 1.4 0.8 6.4 1.2 12.9 1.4 19.4 0.1 2.2 0.1 4.3 0.1 6.5v2.5c-16.3 10.1-33.7 19.2-51.9 27.3V278.6zM505 102c26.4 0 51.6 9.8 71.1 27.6 16 14.6 26.9 33.5 31.7 54.3-5.9-0.9-12-1.6-18.1-2-11.1-36.9-45.6-62.9-84.6-62.9-39.7 0-74.3 26.7-85 64.4-6.1 0.8-12.2 1.9-18.4 3.2 9.7-48.4 52.7-84.6 103.3-84.6zM182.2 792.9v-193c0-21 13.1-39.8 32-47.6v278.8c0 3.2 0.1 6.4 0.4 9.6-19.1-7.6-32.4-26.3-32.4-47.8z m573.6 109c-16.1 13-36.3 20.1-56.9 20.1H325.1c-20.6 0-40.8-7.1-56.9-20.1-15.8-12.7-27-30.5-31.6-50 0-0.1 0-0.2-0.1-0.3-1.6-6.7-2.3-13.6-2.3-20.5V444.9c16.3 9.5 33.7 18.2 52 25.9v56.4c0 11.7 9.6 21.3 21.3 21.3h52.2c11.7 0 21.3-9.6 21.3-21.3v-26.6c42.3 9.2 86.4 13.9 131.1 13.9 44.7 0 88.7-4.7 131-13.9v26.6c0 11.7 9.6 21.3 21.3 21.3h52.2c11.7 0 21.3-9.6 21.3-21.3v-56.4c18.1-7.6 35.5-16.3 51.9-25.8v386.1c0 6.9-0.8 13.8-2.3 20.6 0 0.1 0 0.2-0.1 0.2-4.6 19.5-15.8 37.3-31.6 50z m86-109c0 12.6-4.7 24.8-13.2 34.3-5.4 5.9-11.9 10.5-19.2 13.4 0.3-3.2 0.4-6.4 0.4-9.5V552.3c18.9 7.8 32 26.5 32 47.6v193z" fill="#00435B" p-id="9143"></path><path d="M665.6 556.5H358.3c-46.6 0-84.6 38-84.6 84.6v141c0 46.6 38 84.6 84.6 84.6h307.4c22.5 0 43.7-8.8 59.8-24.9 16-16 24.8-37.3 24.7-59.8V641.1c0-46.6-38-84.6-84.6-84.6zM730.2 782c0 17.2-6.7 33.4-18.9 45.7-12.2 12.3-28.4 19-45.6 19H358.3c-35.6 0-64.6-29-64.6-64.6v-141c0-35.6 29-64.6 64.6-64.6h307.3c35.6 0 64.6 29 64.6 64.6V782z" fill="#00435B" p-id="9144"></path></svg>
