<svg t="1597069086533" class="icon" viewBox="0 0 1024 1024" version="1.1" xmlns="http://www.w3.org/2000/svg" p-id="8815" width="200" height="200"><path d="M818.6 239.7H205.4c-33.1 0-60 26.9-60 60v326.2c0 33.1 26.9 60 60 60h613.1c33.1 0 60-26.9 60-60V299.7c0.1-33.2-26.8-60-59.9-60z" fill="#889CA9" p-id="8816"></path><path d="M784.3 288.9v123c0 13.6-11 24.6-24.6 24.6H264.3c-13.6 0-24.6-11-24.6-24.6V132c0-22.1 17.9-40 40-40h307.8l196.8 196.9z" fill="#FEF8E6" p-id="8817"></path><path d="M878.5 299.7v326.2c0 33.1-26.9 60-60 60h-80c33.1 0 60-26.9 60-60V299.7c0.1-33.2-26.8-60-59.9-60h80c33.1 0 60 26.8 59.9 60z" fill="#73859E" p-id="8818"></path><path d="M784.3 288.9v123c0 13.6-11 24.6-24.6 24.6h-80c13.6 0 24.6-11 24.6-24.6v-123h80z" fill="#FAD672" p-id="8819"></path><path d="M872 387.3H152c-33.1 0-60 26.9-60 60v326.2c0 33.1 26.9 60 60 60h720c33.1 0 60-26.9 60-60V447.3c0-33.1-26.9-60-60-60z" fill="#50E6CC" p-id="8820"></path><path d="M932 447.3v326.2c0 33.1-26.9 60-60 60h-80c33.1 0 60-26.9 60-60V447.3c0-33.1-26.9-60-60-60h80c33.1 0 60 26.9 60 60z" fill="#45DABD" p-id="8821"></path><path d="M587.5 264.3c0 13.8 10.8 24.6 24.6 24.6h172.3L587.5 92v172.3z" fill="#FCEFAD" p-id="8822"></path><path d="M784.3 617v275c0 22.1-17.9 40-40 40H279.7c-22.1 0-40-17.9-40-40V617h544.6z" fill="#FEF8E6" p-id="8823"></path><path d="M784.3 617v275c0 22.1-17.9 40-40 40h-80c22.1 0 40-17.9 40-40V617h80z" fill="#FCEFAD" p-id="8824"></path><path d="M834 637H190c-11 0-20-9-20-20s9-20 20-20h644c11 0 20 9 20 20s-9 20-20 20z" fill="#889CA9" p-id="8825"></path><path d="M278.7 525.1H190c-11 0-20-9-20-20s9-20 20-20h88.7c11 0 20 9 20 20s-9 20-20 20z" fill="#F77490" p-id="8826"></path><path d="M692.5 820h-361c-11 0-20-9-20-20s9-20 20-20h361c11 0 20 9 20 20s-9 20-20 20zM692.5 734.9h-361c-11 0-20-9-20-20s9-20 20-20h361c11 0 20 9 20 20s-9 20-20 20z" fill="#46CDFB" p-id="8827"></path><path d="M854 617c0 11-9 20-20 20h-80c11 0 20-9 20-20s-9-20-20-20h80c11 0 20 9 20 20z" fill="#73859E" p-id="8828"></path><path d="M298.7 505.1c0 11.1-9 20-20 20h-40c11 0 20-8.9 20-20 0-11-9-20-20-20h40c11.1 0 20 8.9 20 20z" fill="#F65D73" p-id="8829"></path><path d="M712.5 800c0 11-9 20-20 20h-80c11 0 20-9 20-20s-9-20-20-20h80c11 0 20 9 20 20zM712.5 714.9c0 11-9 20-20 20h-80c11 0 20-9 20-20 0-11.1-9-20-20-20h80c11 0 20 8.9 20 20z" fill="#15B7FF" p-id="8830"></path><path d="M888.5 379.3v-79.5c0.1-18.7-7.2-36.3-20.4-49.5-13.2-13.3-30.8-20.6-49.5-20.6h-79.3L594.6 84.9c-0.3-0.3-0.7-0.6-1-0.9-0.1-0.1-0.2-0.1-0.3-0.2-0.4-0.3-0.7-0.5-1.1-0.7h-0.1c-0.4-0.2-0.7-0.3-1.1-0.5-0.1 0-0.2-0.1-0.3-0.1-0.4-0.1-0.8-0.3-1.2-0.3-0.4-0.1-0.8-0.1-1.3-0.2H279.7c-27.6 0-50 22.4-50 50v97.7h-24.3c-38.6 0-70 31.4-70 70v79.6c-31 7.5-53.4 35.3-53.4 68v326.2c0 38.6 31.4 70 70 70h77.7V892c0 27.6 22.4 50 50 50h464.6c27.6 0 50-22.4 50-50v-48.5H872c38.6 0 70-31.4 70-70V447.3c0-32.8-22.4-60.6-53.5-68z m-69.9-129.6c13.4 0 25.9 5.2 35.4 14.7 9.4 9.4 14.6 22 14.5 35.3v77.6h-74.2v-87.1c0.4-3-0.6-6.1-2.8-8.3l-32.1-32.1h59.2zM597.5 116.2l162.7 162.7H612.1c-8.3 0-14.6-6.3-14.6-14.6V116.2zM249.7 132c0-16.5 13.5-30 30-30h297.8v162.3c0 19.4 15.2 34.6 34.6 34.6h162.2v78.4H249.7V132z m-44.3 117.7h24.3v127.6h-74.3v-77.6c0-27.6 22.4-50 50-50zM190 627c-5.5 0-10-4.5-10-10s4.5-10 10-10h644c5.5 0 10 4.5 10 10s-4.5 10-10 10H190z m584.3 265c0 16.5-13.5 30-30 30H279.7c-16.5 0-30-13.5-30-30V647h524.6v245zM922 773.5c0 27.6-22.4 50-50 50h-77.7V647H834c16.5 0 30-13.5 30-30s-13.5-30-30-30H190c-16.5 0-30 13.5-30 30s13.5 30 30 30h39.7v176.5H152c-27.6 0-50-22.4-50-50V447.3c0-25.6 19.1-46.9 44.5-49.7 1.8-0.2 3.6-0.3 5.5-0.3h720c1.8 0 3.6 0.1 5.4 0.3 25.4 2.7 44.6 24.1 44.6 49.7v326.2z" fill="#00435B" p-id="8831"></path><path d="M278.7 475.1H190c-16.5 0-30 13.5-30 30s13.5 30 30 30h88.7c16.5 0 30-13.5 30-30s-13.5-30-30-30z m0 40H190c-5.5 0-10-4.5-10-10s4.5-10 10-10h88.7c5.5 0 10 4.5 10 10s-4.5 10-10 10zM692.5 770h-361c-16.5 0-30 13.5-30 30s13.5 30 30 30h361c16.5 0 30-13.5 30-30s-13.5-30-30-30z m0 40h-361c-5.5 0-10-4.5-10-10s4.5-10 10-10h361c5.5 0 10 4.5 10 10s-4.5 10-10 10zM692.5 684.9h-361c-16.5 0-30 13.5-30 30s13.5 30 30 30h361c16.5 0 30-13.5 30-30s-13.5-30-30-30z m0 40h-361c-5.5 0-10-4.5-10-10s4.5-10 10-10h361c5.5 0 10 4.5 10 10s-4.5 10-10 10z" fill="#00435B" p-id="8832"></path></svg>
